<svg width="294" height="249" viewBox="0 0 294 249" fill="none" xmlns="http://www.w3.org/2000/svg">
<path d="M251.667 94.5747V62.8886C251.667 62.8532 251.667 62.8089 251.667 62.7735V9.7066C251.667 4.81071 246.988 0.853271 241.2 0.853271H167.933C163.548 0.853271 159.633 3.16399 158.115 6.6345C156.587 10.1139 157.791 14.0182 161.119 16.4174L230.733 66.8991V94.5747L136.533 174.255L91.5998 136.247C87.5073 132.786 80.8924 132.786 76.7999 136.247L3.53329 198.221C1.56555 199.876 0.466553 202.125 0.466553 204.48V239.893C0.466553 244.789 5.14515 248.747 10.9332 248.747H283.067C288.855 248.747 293.533 244.789 293.533 239.893V133.653C293.533 131.298 292.434 129.05 290.466 127.394L251.667 94.5747ZM196.225 18.5599H230.733V43.5795L196.225 18.5599ZM272.6 231.04H21.3999V208.145L84.1999 155.025L129.133 193.033C133.226 196.494 139.841 196.494 143.933 193.033L241.2 110.759L272.6 137.319V231.04Z" fill="#573791"/>
</svg>
