<svg width="235" height="189" viewBox="0 0 235 189" fill="none" xmlns="http://www.w3.org/2000/svg">
<path d="M86.18 0.511963C63.2094 0.511963 44.42 19.2869 44.42 42.24C44.42 65.193 63.2094 83.968 86.18 83.968C109.151 83.968 127.94 65.193 127.94 42.24C127.94 19.2869 109.151 0.511963 86.18 0.511963ZM86.18 16.16C100.687 16.16 112.28 27.7437 112.28 42.24C112.28 56.7362 100.687 68.32 86.18 68.32C71.6727 68.32 60.08 56.7362 60.08 42.24C60.08 27.7437 71.6727 16.16 86.18 16.16ZM164.48 18.768C145.834 18.768 130.55 34.04 130.55 52.672C130.55 71.3039 145.834 86.576 164.48 86.576C183.126 86.576 198.41 71.3039 198.41 52.672C198.41 34.04 183.126 18.768 164.48 18.768ZM164.48 34.416C174.663 34.416 182.75 42.4968 182.75 52.672C182.75 62.8471 174.663 70.928 164.48 70.928C154.297 70.928 146.21 62.8471 146.21 52.672C146.21 42.4968 154.297 34.416 164.48 34.416ZM86.18 94.4C38.7051 94.4 0.0500488 133.025 0.0500488 180.464C0.0502565 182.539 0.875267 184.529 2.34363 185.996C3.812 187.463 5.80347 188.288 7.88005 188.288H73.13C74.1676 188.303 75.1978 188.111 76.1606 187.725C77.1234 187.338 77.9998 186.764 78.7387 186.036C79.4776 185.308 80.0644 184.44 80.4648 183.484C80.8653 182.527 81.0716 181.501 81.0716 180.464C81.0716 179.427 80.8653 178.401 80.4648 177.444C80.0644 176.488 79.4776 175.62 78.7387 174.892C77.9998 174.164 77.1234 173.59 76.1606 173.203C75.1978 172.817 74.1676 172.625 73.13 172.64H16.5257C20.4399 137.401 49.8441 110.048 86.18 110.048C122.516 110.048 151.92 137.401 155.834 172.64H99.23C98.1925 172.625 97.1623 172.817 96.1995 173.203C95.2367 173.59 94.3603 174.164 93.6214 174.892C92.8825 175.62 92.2957 176.488 91.8952 177.444C91.4948 178.401 91.2885 179.427 91.2885 180.464C91.2885 181.501 91.4948 182.527 91.8952 183.484C92.2957 184.44 92.8825 185.308 93.6214 186.036C94.3603 186.764 95.2367 187.338 96.1995 187.725C97.1623 188.111 98.1925 188.303 99.23 188.288H164.48C166.557 188.288 168.548 187.463 170.016 185.996C171.485 184.529 172.31 182.539 172.31 180.464C172.31 177.807 172.221 175.236 171.984 172.64H227.12C229.197 172.64 231.188 171.815 232.656 170.348C234.125 168.881 234.95 166.891 234.95 164.816C234.95 126.02 203.306 94.4 164.48 94.4C150.899 94.4 138.214 98.3213 127.451 104.995C115.187 98.2735 101.12 94.4 86.18 94.4ZM164.48 110.048C192.163 110.048 214.672 130.413 218.474 156.992H169.048C164.321 140.4 154.704 125.83 141.887 114.938C148.769 111.815 156.402 110.048 164.48 110.048Z" fill="#573791"/>
</svg>
