<?xml version="1.0" standalone="no"?><svg xmlns="http://www.w3.org/2000/svg" viewBox="0 0 1440 320"><path fill="#0099ff" fill-opacity="1" d="M0,160L34.3,138.7C68.6,117,137,75,206,101.3C274.3,128,343,224,411,256C480,288,549,256,617,229.3C685.7,203,754,181,823,181.3C891.4,181,960,203,1029,176C1097.1,149,1166,75,1234,48C1302.9,21,1371,43,1406,53.3L1440,64L1440,320L1405.7,320C1371.4,320,1303,320,1234,320C1165.7,320,1097,320,1029,320C960,320,891,320,823,320C754.3,320,686,320,617,320C548.6,320,480,320,411,320C342.9,320,274,320,206,320C137.1,320,69,320,34,320L0,320Z"></path></svg>