<?xml version="1.0" encoding="utf-8"?>
<!-- Generator: Adobe Illustrator 24.0.3, SVG Export Plug-In . SVG Version: 6.00 Build 0)  -->
<svg version="1.1" id="Layer_1" xmlns="http://www.w3.org/2000/svg" xmlns:xlink="http://www.w3.org/1999/xlink" x="0px" y="0px"
	 viewBox="0 0 1920 1080" style="enable-background:new 0 0 1920 1080;" xml:space="preserve">
<style type="text/css">
	.st0{fill:#00FFFF;}
	.st1{fill:#65C8D0;}
</style>
<path class="st0" d="M1014.8,281.5"/>
<g>
	<path class="st0" d="M931.4,640.8"/>
	<rect x="803.2" y="525.6" width="30.9" height="103.7"/>
	<path d="M863.9,531.5"/>
	<path class="st1" d="M920.4,627.3c-6.8-0.9-26.1-1.6-37.9-10.3c-5-3.7-13.1-9.8-17.7-21c-3.6-8.7-3.7-16.3-3.4-19.8
		c0.4-4.8,2.1-18.2,7.3-24.9c5.3-6.7,12-13.5,14.8-14.8c2.8-1.3,6.7-6.3,15.5-8.1c8.5-1.7,14.1-2.3,14.1-2.1c0,0,0,0,0,0
		c-1.2,0.9-8.3,7.1-9.5,8.4c-1.2,1.4-2.3,2.7-4.1,5.6c-0.8,1.3-2.8,4.6-4.6,9.3c-0.7,1.8-2.7,7.5-3.3,16c-1.2,16.8,4,32,5.1,35
		C901.3,613.2,914.8,621.9,920.4,627.3z"/>
	<path class="st1" d="M920.6,525.6h35.7v34C956.3,559.6,946.7,538.4,920.6,525.6z"/>
	<path d="M864.1,544.5c0.6,3,0.3,6,0.3,6c-0.3,3.6-1.3,6.4-2.1,8.1c-0.9,1.4-1.9,2.8-3.2,4.2c-4.2,4.8-8.9,7.5-12.3,9
		c0,0,42.5,20.6-0.6,57c0,0,33.2,3.2,44.8-8.4c11.6-11.6,5.8-27.3,5.8-27.3s-1.5-5.8-6.1-10.8s-10.7-7.1-11.9-7.9c-1.8-1-9-2-9-2
		c43.9-16,13.2-55.3-23.8-46.8C855.3,528.5,862.4,535.7,864.1,544.5z"/>
	<path class="st1" d="M926.1,589.1c0.3,0,2,0,4.4,0c9.2-0.1,29.6-0.2,29.6-0.2v-7.8h-34"/>
	<path class="st1" d="M930.3,628.3c0.1-39.1,0.1-39.1,0.1-39.1L960,589v27.3C960,616.3,931.5,628.3,930.3,628.3z"/>
	<path d="M862.4,516.3"/>
	<path class="st1" d="M944.8,593.9"/>
</g>
<path d="M1033.9,401.5"/>
<g>
	<g>
		<path d="M812.9,689.9c4.9,0,4.9-7.6,0-7.6S808,689.9,812.9,689.9L812.9,689.9z"/>
	</g>
</g>
</svg>
