<svg width="1187" height="244" viewBox="0 0 1187 244" fill="none" xmlns="http://www.w3.org/2000/svg">
<rect width="1187" height="244" fill="white"/>
<path d="M373.6 98.565H406.555V109.875H387.055V116.115H401.095V126.45H387.055V144H373.6V98.565ZM413.687 109.29C411.737 109.29 410.112 108.662 408.812 107.405C407.512 106.148 406.862 104.545 406.862 102.595C406.862 100.688 407.512 99.1067 408.812 97.85C410.112 96.55 411.737 95.9 413.687 95.9C415.593 95.9 417.197 96.55 418.497 97.85C419.84 99.15 420.512 100.732 420.512 102.595C420.512 104.502 419.84 106.105 418.497 107.405C417.197 108.662 415.593 109.29 413.687 109.29ZM407.187 112.8H420.187V144H407.187V112.8ZM425.714 112.8H438.259V115.855C439.603 114.555 441.184 113.558 443.004 112.865C444.824 112.172 446.731 111.825 448.724 111.825C453.188 111.825 456.459 112.973 458.539 115.27C460.663 117.523 461.724 120.643 461.724 124.63V144H448.659V126.45C448.659 124.977 448.334 123.872 447.684 123.135C447.078 122.355 446.081 121.965 444.694 121.965C442.094 121.965 440.101 123.135 438.714 125.475V144H425.714V112.8ZM477.536 144.975C473.549 144.975 470.343 144.065 467.916 142.245C465.533 140.382 464.341 137.738 464.341 134.315C464.341 130.805 465.511 128.14 467.851 126.32C470.191 124.457 473.593 123.525 478.056 123.525C479.659 123.525 481.284 123.698 482.931 124.045C484.578 124.392 485.964 124.825 487.091 125.345V124.76C487.091 123.33 486.376 122.247 484.946 121.51C483.559 120.773 481.609 120.405 479.096 120.405C475.326 120.405 471.859 121.163 468.696 122.68V114.1C470.126 113.407 471.989 112.865 474.286 112.475C476.583 112.042 479.031 111.825 481.631 111.825C487.654 111.825 492.248 112.973 495.411 115.27C498.574 117.567 500.156 120.817 500.156 125.02V144H487.871V141.53C486.831 142.57 485.401 143.393 483.581 144C481.761 144.65 479.746 144.975 477.536 144.975ZM481.566 137.435C482.736 137.435 483.819 137.218 484.816 136.785C485.813 136.352 486.571 135.788 487.091 135.095V132.69C485.488 131.65 483.668 131.13 481.631 131.13C480.418 131.13 479.464 131.412 478.771 131.975C478.121 132.538 477.796 133.318 477.796 134.315C477.796 135.268 478.121 136.027 478.771 136.59C479.421 137.153 480.353 137.435 481.566 137.435ZM505.06 95.965H518.06V144H505.06V95.965ZM544.098 98.565H565.028C570.488 98.565 574.821 99.9733 578.028 102.79C581.278 105.563 582.903 109.55 582.903 114.75C582.903 119.95 581.278 123.958 578.028 126.775C574.821 129.592 570.488 131 565.028 131H557.553V144H544.098V98.565ZM562.493 120.34C564.573 120.34 566.198 119.928 567.368 119.105C568.538 118.282 569.123 116.83 569.123 114.75C569.123 112.713 568.538 111.283 567.368 110.46C566.198 109.637 564.573 109.225 562.493 109.225H557.553V120.34H562.493ZM586.183 112.8H598.728V116.18C599.941 114.923 601.61 113.927 603.733 113.19C605.9 112.453 608.261 112.085 610.818 112.085V122.16C608.088 122.16 605.661 122.528 603.538 123.265C601.415 124.002 599.963 125.085 599.183 126.515V144H586.183V112.8ZM630.857 144.975C626.871 144.975 623.382 144.282 620.392 142.895C617.446 141.465 615.171 139.493 613.567 136.98C611.964 134.467 611.162 131.607 611.162 128.4C611.162 125.237 611.964 122.398 613.567 119.885C615.171 117.372 617.446 115.4 620.392 113.97C623.382 112.54 626.871 111.825 630.857 111.825C634.844 111.825 638.332 112.54 641.322 113.97C644.312 115.4 646.609 117.372 648.212 119.885C649.816 122.398 650.617 125.237 650.617 128.4C650.617 131.607 649.816 134.467 648.212 136.98C646.609 139.493 644.312 141.465 641.322 142.895C638.332 144.282 634.844 144.975 630.857 144.975ZM630.857 134.9C632.807 134.9 634.367 134.315 635.537 133.145C636.707 131.975 637.292 130.393 637.292 128.4C637.292 126.407 636.707 124.847 635.537 123.72C634.367 122.55 632.807 121.965 630.857 121.965C628.907 121.965 627.347 122.55 626.177 123.72C625.051 124.847 624.487 126.407 624.487 128.4C624.487 130.393 625.051 131.975 626.177 133.145C627.347 134.315 628.907 134.9 630.857 134.9ZM668.87 144.975C665.577 144.975 662.673 144.303 660.16 142.96C657.647 141.573 655.697 139.645 654.31 137.175C652.967 134.662 652.295 131.758 652.295 128.465C652.295 125.215 652.967 122.333 654.31 119.82C655.697 117.263 657.647 115.292 660.16 113.905C662.673 112.518 665.577 111.825 668.87 111.825C670.863 111.825 672.727 112.128 674.46 112.735C676.237 113.298 677.71 114.078 678.88 115.075V95.965H691.88V144H679.335V141.14C678.035 142.397 676.475 143.35 674.655 144C672.878 144.65 670.95 144.975 668.87 144.975ZM672.38 134.9C673.853 134.9 675.153 134.553 676.28 133.86C677.45 133.167 678.317 132.213 678.88 131V125.865C678.317 124.652 677.45 123.698 676.28 123.005C675.153 122.312 673.853 121.965 672.38 121.965C670.343 121.965 668.718 122.55 667.505 123.72C666.335 124.847 665.75 126.428 665.75 128.465C665.75 130.502 666.335 132.083 667.505 133.21C668.718 134.337 670.343 134.9 672.38 134.9ZM709.752 144.975C705.418 144.975 702.168 143.762 700.002 141.335C697.835 138.908 696.752 135.702 696.752 131.715V112.8H709.752V130.155C709.752 133.318 711.138 134.9 713.912 134.9C715.168 134.9 716.295 134.597 717.292 133.99C718.288 133.383 719.09 132.517 719.697 131.39V112.8H732.762V144H720.152V141.01C718.852 142.31 717.292 143.307 715.472 144C713.652 144.65 711.745 144.975 709.752 144.975ZM755.375 144.975C749.612 144.975 745.04 143.567 741.66 140.75C738.324 137.89 736.655 133.795 736.655 128.465C736.655 123.092 738.324 118.975 741.66 116.115C745.04 113.255 749.634 111.825 755.44 111.825C758.04 111.825 760.532 112.085 762.915 112.605C765.299 113.082 767.227 113.775 768.7 114.685V124.76C767.4 123.807 765.84 123.092 764.02 122.615C762.244 122.095 760.38 121.835 758.43 121.835C755.917 121.835 753.902 122.398 752.385 123.525C750.869 124.608 750.11 126.255 750.11 128.465C750.11 130.675 750.847 132.322 752.32 133.405C753.837 134.488 755.852 135.03 758.365 135.03C760.315 135.03 762.2 134.77 764.02 134.25C765.884 133.73 767.574 132.972 769.09 131.975V141.985C767.53 142.938 765.559 143.675 763.175 144.195C760.792 144.715 758.192 144.975 755.375 144.975ZM786.97 144.975C782.94 144.975 779.885 143.848 777.805 141.595C775.725 139.342 774.685 136.287 774.685 132.43V121.575H770.395V112.8H774.685V103.44H787.75V112.8H794.705V121.575H787.75V130.545C787.75 132.105 788.031 133.232 788.595 133.925C789.201 134.575 790.198 134.9 791.585 134.9C793.145 134.9 794.64 134.488 796.07 133.665V143.285C794.813 143.848 793.491 144.26 792.105 144.52C790.761 144.823 789.05 144.975 786.97 144.975Z" fill="black"/>
</svg>
