<svg width="156" height="33" viewBox="0 0 156 33" fill="none" xmlns="http://www.w3.org/2000/svg">
<path d="M29.7 27.05C29.7 28.0833 29.5167 28.85 29.15 29.35C28.7833 29.85 28.2 30.3333 27.4 30.8C26.9333 31.0667 26.35 31.3333 25.65 31.6C24.95 31.8333 24.1833 32.0333 23.35 32.2C22.5167 32.4 21.6333 32.55 20.7 32.65C19.8 32.75 18.9 32.8 18 32.8C15.6 32.8 13.35 32.4833 11.25 31.85C9.15 31.1833 7.31667 30.2 5.75 28.9C4.21667 27.5667 3 25.9167 2.1 23.95C1.2 21.9833 0.75 19.7 0.75 17.1C0.75 14.3667 1.23333 11.9833 2.2 9.95C3.2 7.91667 4.5 6.23333 6.1 4.9C7.73333 3.53333 9.58333 2.51667 11.65 1.85C13.75 1.18333 15.9 0.849999 18.1 0.849999C21.2667 0.849999 23.7667 1.36667 25.6 2.4C27.4667 3.4 28.4 4.71667 28.4 6.35C28.4 7.21667 28.1833 7.96667 27.75 8.6C27.3167 9.23333 26.8167 9.73333 26.25 10.1C25.4167 9.6 24.3667 9.11667 23.1 8.65C21.8667 8.15 20.4667 7.9 18.9 7.9C16.1 7.9 13.8667 8.7 12.2 10.3C10.5667 11.9 9.75 14.1167 9.75 16.95C9.75 18.4833 9.96667 19.8167 10.4 20.95C10.8667 22.05 11.4833 22.9667 12.25 23.7C13.0167 24.4 13.9 24.9333 14.9 25.3C15.9 25.6333 16.9667 25.8 18.1 25.8C18.8333 25.8 19.4833 25.7333 20.05 25.6C20.6167 25.4667 21.05 25.3167 21.35 25.15V20.45H16C15.8 20.0833 15.6 19.6 15.4 19C15.2333 18.4 15.15 17.7667 15.15 17.1C15.15 15.9 15.4167 15.0333 15.95 14.5C16.5167 13.9667 17.2333 13.7 18.1 13.7H26.55C27.55 13.7 28.3167 13.9833 28.85 14.55C29.4167 15.0833 29.7 15.85 29.7 16.85V27.05ZM44.1531 22.2V31.8C43.7865 31.9 43.2031 32 42.4031 32.1C41.6365 32.2 40.8698 32.25 40.1031 32.25C39.3365 32.25 38.6531 32.1833 38.0531 32.05C37.4865 31.95 37.0031 31.75 36.6031 31.45C36.2365 31.15 35.9531 30.7333 35.7531 30.2C35.5531 29.6667 35.4531 28.9667 35.4531 28.1V4.55C35.4531 3.85 35.6365 3.31666 36.0031 2.95C36.4031 2.55 36.9365 2.23333 37.6031 2C38.7365 1.6 40.0531 1.31666 41.5531 1.15C43.0531 0.949998 44.6531 0.849999 46.3531 0.849999C50.9531 0.849999 54.4198 1.81667 56.7531 3.75C59.0865 5.68333 60.2531 8.3 60.2531 11.6C60.2531 13.6667 59.7198 15.4333 58.6531 16.9C57.5865 18.3667 56.3198 19.5 54.8531 20.3C56.0531 21.9333 57.2365 23.4667 58.4031 24.9C59.5698 26.3333 60.4865 27.6333 61.1531 28.8C60.8198 29.9667 60.2031 30.8667 59.3031 31.5C58.4365 32.1 57.4531 32.4 56.3531 32.4C55.6198 32.4 54.9865 32.3167 54.4531 32.15C53.9198 31.9833 53.4531 31.75 53.0531 31.45C52.6531 31.15 52.2865 30.7833 51.9531 30.35C51.6198 29.9167 51.3031 29.45 51.0031 28.95L46.8031 22.2H44.1531ZM47.3031 15.55C48.5698 15.55 49.5698 15.2333 50.3031 14.6C51.0365 13.9333 51.4031 12.9667 51.4031 11.7C51.4031 10.4333 50.9865 9.48333 50.1531 8.85C49.3531 8.18333 48.0698 7.85 46.3031 7.85C45.8031 7.85 45.4031 7.86667 45.1031 7.9C44.8031 7.93333 44.4698 7.98333 44.1031 8.05V15.55H47.3031ZM74.6719 31.8C74.3052 31.9 73.7219 32 72.9219 32.1C72.1552 32.2 71.3885 32.25 70.6219 32.25C69.8552 32.25 69.1719 32.1833 68.5719 32.05C68.0052 31.95 67.5219 31.75 67.1219 31.45C66.7219 31.15 66.4219 30.7333 66.2219 30.2C66.0219 29.6667 65.9219 28.9667 65.9219 28.1V1.7C66.2885 1.63333 66.8719 1.55 67.6719 1.45C68.4719 1.31667 69.2385 1.25 69.9719 1.25C70.7385 1.25 71.4052 1.31667 71.9719 1.45C72.5719 1.55 73.0719 1.75 73.4719 2.05C73.8719 2.35 74.1719 2.76667 74.3719 3.3C74.5719 3.83333 74.6719 4.53333 74.6719 5.4V31.8ZM102.106 24.55C101.673 24.9167 101.106 25.2167 100.406 25.45C99.7396 25.65 98.9563 25.75 98.0563 25.75C96.8563 25.75 95.8563 25.6 95.0563 25.3C94.2896 25 93.7896 24.4833 93.5563 23.75C92.6229 20.8167 91.8563 18.45 91.2563 16.65C90.6563 14.8167 90.1896 13.2167 89.8563 11.85H89.6063C89.5063 13.8167 89.4229 15.6167 89.3563 17.25C89.3229 18.85 89.2896 20.4167 89.2563 21.95C89.2563 23.4833 89.2229 25.0333 89.1563 26.6C89.1229 28.1667 89.0563 29.9 88.9563 31.8C88.5229 31.9667 87.9563 32.1 87.2563 32.2C86.5563 32.3333 85.8563 32.4 85.1563 32.4C83.6896 32.4 82.5396 32.1667 81.7063 31.7C80.9063 31.2333 80.5063 30.3833 80.5063 29.15L81.9563 3.65C82.2229 3.21666 82.8063 2.75 83.7063 2.25C84.6063 1.75 85.8729 1.5 87.5063 1.5C89.2729 1.5 90.6563 1.78333 91.6563 2.35C92.6563 2.88333 93.3896 3.76667 93.8563 5C94.1563 5.8 94.4729 6.71667 94.8063 7.75C95.1729 8.78333 95.5229 9.85 95.8563 10.95C96.2229 12.05 96.5729 13.15 96.9063 14.25C97.2396 15.3167 97.5396 16.2833 97.8063 17.15H98.0563C98.8563 14.35 99.6563 11.65 100.456 9.05C101.256 6.41666 101.99 4.21666 102.656 2.45C103.156 2.18333 103.79 1.96666 104.556 1.8C105.356 1.6 106.24 1.5 107.206 1.5C108.84 1.5 110.173 1.75 111.206 2.25C112.24 2.71667 112.84 3.4 113.006 4.3C113.14 4.96667 113.273 6 113.406 7.4C113.573 8.76667 113.74 10.3167 113.906 12.05C114.073 13.7833 114.24 15.6167 114.406 17.55C114.573 19.4833 114.723 21.35 114.856 23.15C115.023 24.9167 115.156 26.55 115.256 28.05C115.356 29.5167 115.423 30.65 115.456 31.45C114.89 31.7833 114.29 32.0167 113.656 32.15C113.056 32.3167 112.273 32.4 111.306 32.4C110.04 32.4 108.973 32.1833 108.106 31.75C107.24 31.3167 106.773 30.4667 106.706 29.2C106.506 25.5667 106.373 22.3 106.306 19.4C106.273 16.5 106.206 14.0667 106.106 12.1H105.856C105.523 13.4 105.04 15.0333 104.406 17C103.773 18.9667 103.006 21.4833 102.106 24.55ZM141.95 24.55C141.517 24.9167 140.95 25.2167 140.25 25.45C139.583 25.65 138.8 25.75 137.9 25.75C136.7 25.75 135.7 25.6 134.9 25.3C134.133 25 133.633 24.4833 133.4 23.75C132.467 20.8167 131.7 18.45 131.1 16.65C130.5 14.8167 130.033 13.2167 129.7 11.85H129.45C129.35 13.8167 129.267 15.6167 129.2 17.25C129.167 18.85 129.133 20.4167 129.1 21.95C129.1 23.4833 129.067 25.0333 129 26.6C128.967 28.1667 128.9 29.9 128.8 31.8C128.367 31.9667 127.8 32.1 127.1 32.2C126.4 32.3333 125.7 32.4 125 32.4C123.533 32.4 122.383 32.1667 121.55 31.7C120.75 31.2333 120.35 30.3833 120.35 29.15L121.8 3.65C122.067 3.21666 122.65 2.75 123.55 2.25C124.45 1.75 125.717 1.5 127.35 1.5C129.117 1.5 130.5 1.78333 131.5 2.35C132.5 2.88333 133.233 3.76667 133.7 5C134 5.8 134.317 6.71667 134.65 7.75C135.017 8.78333 135.367 9.85 135.7 10.95C136.067 12.05 136.417 13.15 136.75 14.25C137.083 15.3167 137.383 16.2833 137.65 17.15H137.9C138.7 14.35 139.5 11.65 140.3 9.05C141.1 6.41666 141.833 4.21666 142.5 2.45C143 2.18333 143.633 1.96666 144.4 1.8C145.2 1.6 146.083 1.5 147.05 1.5C148.683 1.5 150.017 1.75 151.05 2.25C152.083 2.71667 152.683 3.4 152.85 4.3C152.983 4.96667 153.117 6 153.25 7.4C153.417 8.76667 153.583 10.3167 153.75 12.05C153.917 13.7833 154.083 15.6167 154.25 17.55C154.417 19.4833 154.567 21.35 154.7 23.15C154.867 24.9167 155 26.55 155.1 28.05C155.2 29.5167 155.267 30.65 155.3 31.45C154.733 31.7833 154.133 32.0167 153.5 32.15C152.9 32.3167 152.117 32.4 151.15 32.4C149.883 32.4 148.817 32.1833 147.95 31.75C147.083 31.3167 146.617 30.4667 146.55 29.2C146.35 25.5667 146.217 22.3 146.15 19.4C146.117 16.5 146.05 14.0667 145.95 12.1H145.7C145.367 13.4 144.883 15.0333 144.25 17C143.617 18.9667 142.85 21.4833 141.95 24.55Z" fill="#FF7315"/>
</svg>
